<svg
   viewBox="0 0 14 14"
   width="14"
   height="14"
   version="1.1"
   id="svg13"
   sodipodi:docname="Const.svg"
   inkscape:version="1.1 (c68e22c387, 2021-05-23)"
   xmlns:inkscape="http://www.inkscape.org/namespaces/inkscape"
   xmlns:sodipodi="http://sodipodi.sourceforge.net/DTD/sodipodi-0.dtd"
   xmlns="http://www.w3.org/2000/svg"
   xmlns:svg="http://www.w3.org/2000/svg">
  <defs
     id="defs17">
    <filter
       inkscape:collect="always"
       style="color-interpolation-filters:sRGB"
       id="filter852"
       x="-0.1417969"
       y="-0.14179686"
       width="1.2835938"
       height="1.2835937">
      <feGaussianBlur
         inkscape:collect="always"
         stdDeviation="0.80760265"
         id="feGaussianBlur854" />
    </filter>
  </defs>
  <sodipodi:namedview
     id="namedview15"
     pagecolor="#505050"
     bordercolor="#ffffff"
     borderopacity="1"
     inkscape:pageshadow="0"
     inkscape:pageopacity="0"
     inkscape:pagecheckerboard="1"
     showgrid="false"
     inkscape:zoom="46"
     inkscape:cx="6.8369565"
     inkscape:cy="6.9891304"
     inkscape:window-width="2560"
     inkscape:window-height="1377"
     inkscape:window-x="-10"
     inkscape:window-y="-10"
     inkscape:window-maximized="1"
     inkscape:current-layer="layer1" />
  <style
     id="style2">
     .locked #blur {
         fill: black;
         opacity: 0.2 !important;
      }
      .locked #tria1 {
         display: none;
      }
      .locked #tria2 {
         display: none;
      }
      .locked #tria3 {
         display: none;
      }
      .locked #lock {
         display: inline !important;
      }
      .locked #spikes {
         fill: black;
         opacity: 0.2 !important;
      }
      .locked #c1 {
         display: none;
      }
      .locked #c2 {
         fill: currentColor;
         filter: brightness(0.8);
      }
   </style>
  <g
     id="layer1"
     style="display:inline">
    <path
       id="blur"
       fill="currentColor"
       d="m 7.0050256,1.8579701 c 2.8378948,0 5.1233264,2.3228303 5.1233264,5.1607238 0,2.8378955 -2.2854316,5.1233291 -5.1233264,5.1233291 -2.8378933,0 -5.1607237,-2.2854336 -5.1607237,-5.1233291 0,-2.8378935 2.3228304,-5.1607238 5.1607237,-5.1607238 z"
       style="filter:url(#filter852);opacity:0.50089286" />
    <path
       fill="currentColor"
       id="spikes"
       style="filter: saturate(1.2) brightness(1.2);opacity:0.34;stroke-width:14;-inkscape-stroke:none;paint-order:stroke markers fill"
       d="M 6.9765625 0.064453125 C 6.9467546 0.85141685 5.9921875 1.75 5.9921875 1.75 C 5.9921875 1.75 6.0760675 1.8117359 6.2011719 1.9023438 C 5.1498951 2.0594918 4.2057056 2.5365097 3.4628906 3.2265625 L 3.6035156 3.5019531 C 4.3806604 2.7551545 5.4042492 2.2621086 6.5410156 2.1621094 C 6.7579342 2.3478614 6.9639375 2.5608913 6.9765625 2.71875 C 6.9886147 2.5608794 7.185425 2.3478614 7.4023438 2.1621094 C 8.5408289 2.2623107 9.5677435 2.7571794 10.345703 3.5058594 L 10.488281 3.2246094 C 9.7440717 2.5338158 8.7948023 2.0596962 7.7421875 1.9023438 C 7.8673475 1.8117637 7.9589844 1.75 7.9589844 1.75 C 7.9589844 1.75 7.0063113 0.84549493 6.9765625 0.064453125 z M 2.4980469 4.4375 C 2.0589754 5.1966217 1.8027344 6.0769736 1.8027344 7.0175781 C 1.8027344 8.0638822 2.1174806 9.0326811 2.6503906 9.8457031 C 2.4688386 9.8046831 2.3378906 9.765625 2.3378906 9.765625 C 2.3378906 9.765625 2.2817756 11.039579 1.7382812 11.589844 C 2.3644312 11.125155 3.6269531 11.255859 3.6269531 11.255859 C 3.6269503 11.255859 3.6041237 11.113136 3.5898438 10.923828 C 4.3074401 11.545276 5.1987105 11.972198 6.1816406 12.123047 L 6.3085938 11.835938 C 5.2520939 11.692749 4.3037842 11.212123 3.5761719 10.503906 C 3.5794319 10.239682 3.6118467 9.9813726 3.7148438 9.8769531 C 3.5959511 9.9655381 3.3336419 9.9619933 3.0683594 9.9257812 C 2.7777194 9.5370999 2.5457374 9.1029884 2.3808594 8.6367188 L 3.15625 8.0449219 L 3.15625 7.4003906 L 3.0683594 7.3359375 L 3.15625 7.2695312 L 3.15625 6.9375 L 2.8515625 7.1679688 L 2.1210938 6.6035156 C 2.1332248 6.4582376 2.1551875 6.3112939 2.1796875 6.1699219 L 3.15625 6.921875 L 3.15625 6.5976562 L 2.2363281 5.8808594 C 2.3540595 5.3870514 2.5459591 4.922728 2.8007812 4.5 L 2.4980469 4.4375 z M 11.445312 4.4375 L 11.142578 4.5 C 11.3974 4.9227275 11.5893 5.3870503 11.707031 5.8808594 L 10.722656 6.640625 L 10.722656 7.2265625 L 10.867188 7.3359375 L 10.722656 7.4511719 L 10.722656 7.9941406 L 11.5625 8.6445312 C 11.397776 9.1079038 11.15623 9.5450861 10.867188 9.9316406 C 10.612018 9.9641906 10.362252 9.960615 10.248047 9.875 L 10.248047 9.8769531 C 10.347477 9.9760371 10.384658 10.222646 10.390625 10.474609 C 9.6597917 11.196423 8.7031308 11.690148 7.6347656 11.835938 L 7.7617188 12.123047 C 8.7550255 11.970261 9.6554511 11.534446 10.376953 10.902344 C 10.362533 11.10694 10.339844 11.255859 10.339844 11.255859 C 10.339844 11.255859 11.602331 11.12517 12.228516 11.589844 C 11.681914 11.04138 11.626953 9.765625 11.626953 9.765625 C 11.626953 9.765625 11.488136 9.8106756 11.294922 9.8535156 C 11.829946 9.0394296 12.140625 8.0661389 12.140625 7.0175781 C 12.140625 6.0769748 11.884386 5.1966198 11.445312 4.4375 z M 11.765625 6.1640625 C 11.790405 6.3054065 11.809946 6.4523782 11.822266 6.5976562 L 11.085938 7.1679688 L 10.773438 6.9296875 L 11.765625 6.1640625 z M 2.1074219 6.921875 L 2.6425781 7.3359375 L 2.1582031 7.7109375 C 2.1254431 7.4827515 2.1074219 7.2548501 2.1074219 7.0175781 C 2.1074219 6.9871981 2.1068697 6.9521151 2.1074219 6.921875 z M 11.837891 6.921875 C 11.838443 6.952115 11.837891 6.9871981 11.837891 7.0175781 C 11.837891 7.2571881 11.828292 7.488436 11.794922 7.71875 L 11.294922 7.3359375 L 11.837891 6.921875 z M 2.8515625 7.5019531 L 3.1347656 7.7265625 L 2.2949219 8.3769531 C 2.2599219 8.2565531 2.2269319 8.1318385 2.2011719 8.0078125 L 2.8515625 7.5019531 z M 11.085938 7.5019531 L 11.736328 8.015625 C 11.710988 8.136865 11.684551 8.2592271 11.650391 8.3769531 L 10.802734 7.7265625 L 11.085938 7.5019531 z " />
    <path
       fill="currentColor"
       style="opacity:0.34;stroke-width:14;-inkscape-stroke:none;paint-order:stroke markers fill"
       d="M 6.9765625,11.611328 6.5410156,12.464844 6.96875,13.326172 7.4023438,12.472656 Z"
       id="tria1" />
    <path
       fill="currentColor"
       style="opacity:0.34;stroke-width:14;-inkscape-stroke:none;paint-order:stroke markers fill"
       d="m 11.867188,3.0742188 -0.925782,0.2246093 -0.384765,0.875 0.933593,-0.2167969 z"
       id="tria2" />
    <path
       fill="currentColor"
       style="opacity:0.34;stroke-width:14;-inkscape-stroke:none;paint-order:stroke markers fill"
       d="m 2.078125,3.0742188 0.3828125,0.8828124 0.9257813,0.2167969 -0.375,-0.875 z"
       id="tria3" />
    <path
       id="backdrop"
       fill="currentColor"
       style="filter: brightness(0.2);stroke-width:14.452;-inkscape-stroke:none;paint-order:stroke markers fill"
       d="m 7.0004406,3.1188397 c 2.1420183,0 3.8670424,1.7532521 3.8670424,3.8952694 0,2.1420188 -1.7250241,3.8670439 -3.8670424,3.8670439 -2.1420172,0 -3.8952694,-1.7250251 -3.8952694,-3.8670439 0,-2.1420173 1.7532522,-3.8952694 3.8952694,-3.8952694 z" />
    <path
       id="c1"
       fill="currentColor"
       style="opacity:0.9;stroke-width:14;-inkscape-stroke:none;paint-order:stroke markers fill"
       d="m 7,2.5019531 c -2.4745042,0 -4.484375,2.0372132 -4.484375,4.5117188 0,2.4745056 2.0098708,4.4843751 4.484375,4.4843751 2.4745052,0 4.484375,-2.0098694 4.484375,-4.4843751 C 11.484375,4.5391664 9.4745052,2.501953 7,2.5019531 Z m 0,0.7382813 c 2.0835952,-1.4e-6 3.746094,1.6898427 3.746094,3.7734375 C 10.746096,9.0972668 9.0835962,10.759766 7,10.759766 4.9164052,10.759766 3.2265625,9.0972668 3.2265625,7.0136719 3.2265625,4.9300771 4.9164052,3.2402329 7,3.2402344 Z" />
    <path
       id="c2"
       fill="#fff"
       style="stroke-width:14;-inkscape-stroke:none;paint-order:stroke markers fill"
       d="m 6.9999992,2.966797 c -2.2231524,0 -4.046875,1.8237225 -4.046875,4.0468749 0,2.2231524 1.8237226,4.0195311 4.046875,4.0195311 2.2231522,0 4.0195308,-1.7963786 4.0195308,-4.0195311 0,-2.2231524 -1.7963786,-4.0468749 -4.0195308,-4.0468749 z m 0,0.273434 c 2.0750222,0 3.7460928,1.6984155 3.7460928,3.7734367 0,2.0750227 -1.6710706,3.7460943 -3.7460928,3.7460943 -2.0750212,0 -3.7734368,-1.6710716 -3.7734368,-3.7460943 0,-2.0750212 1.6984156,-3.7734367 3.7734368,-3.7734367 z" />
    <path
       id="lock"
       fill="#ffffff"
       style="display:none;opacity:1;stroke-width:0.0631447;paint-order:stroke markers fill"
       d="M 7.0168965,5.2240628 A 0.89827895,0.89827895 0 0 0 6.1195481,6.1214119 V 6.3335126 H 5.7736604 A 0.11744553,0.11744553 0 0 0 5.6561893,6.4509837 V 8.3908893 A 0.11744553,0.11744553 0 0 0 5.7736604,8.5083605 H 8.2258708 A 0.11744553,0.11744553 0 0 0 8.3433419,8.3908893 V 6.4509837 A 0.11744553,0.11744553 0 0 0 8.2258708,6.3335126 H 7.9158773 V 6.1214119 A 0.89827895,0.89827895 0 0 0 7.0168965,5.2240628 Z m 0,0.3426242 A 0.57215776,0.57215776 0 0 1 7.5895686,6.1377274 V 6.3335126 H 6.4458568 V 6.1377274 A 0.57215776,0.57215776 0 0 1 7.0168965,5.566687 Z m -0.016315,1.4112854 a 0.31753086,0.31753086 0 0 1 0.3165193,0.318151 0.31753086,0.31753086 0 0 1 -0.1876273,0.2887832 v 0.2855203 c 0,0.048715 -0.039386,0.086472 -0.088104,0.086472 h -0.083208 c -0.048717,0 -0.088104,-0.037758 -0.088104,-0.086472 V 7.5849066 A 0.31753086,0.31753086 0 0 1 6.6824306,7.2961234 0.31753086,0.31753086 0 0 1 7.0005815,6.9779724 Z" />
  </g>
</svg>
