<svg aria-hidden="true" data-prefix="faga" data-icon="HealingBonus" class="svg-inline--fa fa-HealingBonus fa-w-16" viewBox="0 0 14 14" xmlns="http://www.w3.org/2000/svg"><path fill="currentColor" d="M4.766 0a.589.589 0 0 0-.59.588v.021c.08.674.664 4.285.691 4.258.027-.027-3.584-.612-4.258-.691H.588a.589.589 0 0 0-.588.59v4.468a.589.589 0 0 0 .588.59h.144c.902-.12 4.161-.648 4.135-.674-.027-.027-.612 3.582-.691 4.256v.006a.589.589 0 0 0 .59.588h4.468a.589.589 0 0 0 .59-.588v-.006c-.08-.674-.664-4.283-.691-4.256-.026.026 3.233.554 4.135.674h.144a.589.589 0 0 0 .588-.59V4.766a.589.589 0 0 0-.588-.59h-.021c-.672.079-4.286.664-4.258.691.027.027.612-3.584.691-4.258V.588A.589.589 0 0 0 9.234 0H4.766z"/><path fill="currentColor" style="fill-opacity:.501023;stroke-width:1.80486;stroke-opacity:.370143;paint-order:stroke markers fill" d="M3.394 3.392C3.416 3.37.229 2.858.237 2.887.245 2.917 2.919.243 2.889.235c-.03-.008.483 3.179.505 3.157ZM10.606 3.392c.022.022.535-3.165.505-3.157-.03.008 2.644 2.682 2.652 2.652.008-.03-3.179.483-3.157.505zM10.606 10.625c-.022.021 3.165.534 3.157.505-.008-.03-2.682 2.644-2.652 2.652.03.008-.483-3.179-.505-3.157zM3.394 10.625c-.022-.022-.535 3.165-.505 3.157C2.92 13.774.245 11.1.237 11.13c-.008.03 3.179-.484 3.157-.505z"/></svg>