<svg aria-hidden="true" data-prefix="faga" data-icon="EnergyRecharge_primary" class="svg-inline--fa fa-EnergyRecharge_primary fa-w-17" width="14" height="14" xmlns="http://www.w3.org/2000/svg"><path fill="currentColor" style="fill-opacity:.498978;stroke-width:.913084;-inkscape-stroke:none;paint-order:stroke markers fill" d="M3.562 6.765a4.03 4.03 0 0 1 4.045-4.049L7.606.371C4.09.373 1.216 3.25 1.216 6.766Z" transform="translate(0 .237)"/><path fill="currentColor" style="fill-opacity:1;stroke-width:.913084;-inkscape-stroke:none;paint-order:stroke markers fill" d="M1.217 6.763c0 3.516 2.875 6.391 6.391 6.391S14 10.28 14 6.763 11.124.37 7.608.37v2.345a4.03 4.03 0 0 1 4.047 4.047 4.03 4.03 0 0 1-4.047 4.046 4.03 4.03 0 0 1-4.046-4.046z" transform="translate(0 .237)"/><path fill="currentColor" style="fill-opacity:1;stroke:none;stroke-width:2.5;stroke-miterlimit:4;stroke-dasharray:none;stroke-opacity:1;paint-order:stroke markers fill" d="M3.805 9.726h-5.688L.96 4.8z" transform="rotate(-11.404 -2.73 .13) scale(1.03229)"/></svg>