<svg aria-hidden="true" data-prefix="faga" data-icon="ShieldStrength" class="svg-inline--fa fa-ShieldStrength fa-w-15" width="14" height="14" xmlns="http://www.w3.org/2000/svg"><path fill="currentColor" d="M13.442.726a.291.291 0 0 0-.175-.268C12.859.286 11.503 0 7 0S1.143.286.735.458a.291.291 0 0 0-.176.269v7.44a.868.868 0 0 0 .125.453c1.579 2.6 5.347 4.855 6.16 5.339a.292.292 0 0 0 .3 0c.79-.482 4.56-2.688 6.169-5.335a.868.868 0 0 0 .127-.455zM5.695 10.773 6.74 7l-4-1 5.61-4.762L7.306 5.01l4 1z"/></svg>